<?xml version="1.0" encoding="UTF-8"?>
<!DOCTYPE svg PUBLIC "-//W3C//DTD SVG 1.1//EN" "http://www.w3.org/Graphics/SVG/1.1/DTD/svg11.dtd">
<!-- Creator: CorelDRAW 2017 -->
<svg xmlns="http://www.w3.org/2000/svg" xml:space="preserve" width="202.015mm" height="7.0272mm" version="1.1" style="shape-rendering:geometricPrecision; text-rendering:geometricPrecision; image-rendering:optimizeQuality; fill-rule:evenodd; clip-rule:evenodd"
viewBox="0 0 20201 703"
 xmlns:xlink="http://www.w3.org/1999/xlink">
 <defs>
  <style type="text/css">
   <![CDATA[
    .fil0 {fill:#0D6E5F}
   ]]>
  </style>
 </defs>
 <g id="Camada_x0020_1">
  <metadata id="CorelCorpID_0Corel-Layer"/>
  <rect class="fil0" y="2" width="11120" height="699"/>
  <rect class="fil0" x="11338" y="2" width="175" height="699"/>
  <rect class="fil0" x="11655" y="2" width="162" height="699"/>
  <rect class="fil0" x="11930" y="2" width="162" height="699"/>
  <rect class="fil0" x="12199" y="2" width="162" height="699"/>
  <rect class="fil0" x="12517" y="2" width="162" height="699"/>
  <rect class="fil0" x="12788" y="2" width="162" height="699"/>
  <rect class="fil0" x="13057" y="2" width="162" height="699"/>
  <rect class="fil0" x="13362" y="2" width="132" height="699"/>
  <rect class="fil0" x="13643" y="2" width="132" height="699"/>
  <rect class="fil0" x="13919" y="2" width="132" height="699"/>
  <rect class="fil0" x="14215" y="2" width="132" height="699"/>
  <rect class="fil0" x="14503" y="2" width="111" height="699"/>
  <rect class="fil0" x="14782" y="2" width="111" height="699"/>
  <rect class="fil0" x="15077" y="2" width="111" height="699"/>
  <rect class="fil0" x="15365" y="2" width="111" height="699"/>
  <rect class="fil0" x="15634" y="2" width="111" height="699"/>
  <rect class="fil0" x="15909" y="2" width="111" height="699"/>
  <rect class="fil0" x="16206" y="2" width="89" height="699"/>
  <rect class="fil0" x="16501" y="2" width="89" height="699"/>
  <rect class="fil0" x="16772" y="2" width="89" height="699"/>
  <rect class="fil0" x="17050" y="2" width="89" height="699"/>
  <rect class="fil0" x="17352" y="2" width="75" height="699"/>
  <rect class="fil0" x="17624" y="2" width="75" height="699"/>
  <rect class="fil0" x="17911" y="2" width="75" height="699"/>
  <rect class="fil0" x="18193" y="2" width="75" height="699"/>
  <rect class="fil0" x="18466" y="2" width="75" height="699"/>
  <rect class="fil0" x="18741" y="2" width="75" height="699"/>
  <rect class="fil0" x="19016" y="2" width="75" height="699"/>
  <rect class="fil0" x="19293" y="2" width="75" height="699"/>
  <rect class="fil0" x="19571" y="2" width="75" height="699"/>
  <rect class="fil0" x="19849" y="2" width="75" height="699"/>
  <rect class="fil0" x="20127" y="2" width="75" height="699"/>
 </g>
</svg>
