<?xml version="1.0" encoding="UTF-8"?>
<!DOCTYPE svg PUBLIC "-//W3C//DTD SVG 1.1//EN" "http://www.w3.org/Graphics/SVG/1.1/DTD/svg11.dtd">
<!-- Creator: CorelDRAW 2017 -->
<svg xmlns="http://www.w3.org/2000/svg" xml:space="preserve" width="47.1877mm" height="35.9515mm" version="1.1" style="shape-rendering:geometricPrecision; text-rendering:geometricPrecision; image-rendering:optimizeQuality; fill-rule:evenodd; clip-rule:evenodd"
viewBox="0 0 1137 866"
 xmlns:xlink="http://www.w3.org/1999/xlink">
 <defs>
  <style type="text/css">
   <![CDATA[
    .str1 {stroke:#0D6E5F;stroke-width:48.177}
    .str0 {stroke:#0D6E5F;stroke-width:60.2213;stroke-linecap:round}
    .fil0 {fill:none}
   ]]>
  </style>
 </defs>
 <g id="Camada_x0020_1">
  <metadata id="CorelCorpID_0Corel-Layer"/>
  <g id="_911068240">
   <path class="fil0 str0" d="M30 30c48,0 97,0 145,0 67,0 99,37 112,75 44,121 71,245 107,366 24,82 77,111 129,112 97,1 194,0 292,0 48,0 95,-23 129,-76 51,-80 93,-166 140,-249 51,-90 14,-124 -76,-124l-531 0"/>
   <path class="fil0 str1" d="M503 673c47,0 84,38 84,84 0,47 -38,84 -84,84 -47,0 -84,-38 -84,-84 0,-47 38,-84 84,-84z"/>
   <path class="fil0 str1" d="M813 673c47,0 84,38 84,84 0,47 -38,84 -84,84 -47,0 -84,-38 -84,-84 0,-47 38,-84 84,-84z"/>
  </g>
 </g>
</svg>
