<?xml version="1.0" encoding="UTF-8"?>
<!DOCTYPE svg PUBLIC "-//W3C//DTD SVG 1.1//EN" "http://www.w3.org/Graphics/SVG/1.1/DTD/svg11.dtd">
<!-- Creator: CorelDRAW 2017 -->
<svg xmlns="http://www.w3.org/2000/svg" xml:space="preserve" width="35.5224mm" height="36.2636mm" version="1.1" style="shape-rendering:geometricPrecision; text-rendering:geometricPrecision; image-rendering:optimizeQuality; fill-rule:evenodd; clip-rule:evenodd"
viewBox="0 0 1506 1538"
 xmlns:xlink="http://www.w3.org/1999/xlink">
 <defs>
  <style type="text/css">
   <![CDATA[
    .str0 {stroke:#0D6E5F;stroke-width:84.8015}
    .fil0 {fill:none}
   ]]>
  </style>
 </defs>
 <g id="Camada_x0020_1">
  <metadata id="CorelCorpID_0Corel-Layer"/>
  <g id="_911077616">
   <path class="fil0 str0" d="M224 457l0 -330c0,-47 38,-85 85,-85l1070 0c47,0 85,38 85,85l0 1283c0,47 -38,85 -85,85l-1070 0c-47,0 -85,-38 -85,-85l0 -347"/>
   <rect class="fil0 str0" x="1077" y="249" width="196" height="1041"/>
   <path class="fil0 str0" d="M154 859c132,0 263,0 395,0 -55,97 -93,104 -15,189 28,31 71,36 113,0 81,-71 157,-148 232,-226 38,-39 49,-82 0,-129 -78,-74 -151,-155 -232,-226 -42,-36 -84,-31 -113,0 -78,84 -40,92 15,189 -132,0 -263,0 -395,0 -163,-9 -134,205 0,203z"/>
  </g>
 </g>
</svg>
